# xmcd CD database file
# Copyright (C) 1997 Ti Kan
#
# Track frame offsets:
#  150
#  21965
#  42095
#  64312
#  87535
#  106235
#  127227
#  144280
#  164142
#  183620
#  214760
#  234885
#  251845
#
# Disc length: 3617 seconds
#
# Revision: 1
# Processed by: cddbd v1.4b41PL1 Copyright (c) Steve Scherf et al.
# Submitted via: CDWizzard Release:4.31
#
DISCID=c10e1f0d
DTITLE=Mathilde Santing - Choosy - Live!
DYEAR=1900
DGENRE=
TTITLE0=Crescendo
TTITLE1=I Had A King
TTITLE2=Beauty Of The Ritual
TTITLE3=Just One Victory
TTITLE4=Choosy Begger
TTITLE5=Hey Joan
TTITLE6=I Don't Blame You At All
TTITLE7=Point It Out
TTITLE8=Is This All There Is
TTITLE9=Let's Burn Down The Cornfield
TTITLE10=Take It Up
TTITLE11=More Love
TTITLE12=Some People's Lives
EXTD=
EXTT0=
EXTT1=
EXTT2=
EXTT3=
EXTT4=
EXTT5=
EXTT6=
EXTT7=
EXTT8=
EXTT9=
EXTT10=
EXTT11=
EXTT12=
PLAYORDER=
